<?xml version="1.0" encoding="utf-8"?>
<!-- Generator: Adobe Illustrator 24.2.3, SVG Export Plug-In . SVG Version: 6.00 Build 0)  -->
<svg version="1.1" id="Layer_1" xmlns="http://www.w3.org/2000/svg" xmlns:xlink="http://www.w3.org/1999/xlink" x="0px" y="0px"
	 viewBox="0 0 297.4 211.1" style="enable-background:new 0 0 297.4 211.1;" xml:space="preserve">
<g fill="white">
	<path d="M126,38.9c-1.3-1.8-2.7-3.4-4.2-4.8c-1.5-1.3-3.5-2.9-6-4.8c-1.8-1.3-3.2-2-4.1-1.9c-0.9,0.1-2.4,0.6-4.5,1.7
		c-0.4,0.2-0.9,0.6-1.6,1.2c-0.7,0.5-1.4,1.1-2.1,1.7c-0.7,0.6-1.4,1.3-2,1.9c-0.6,0.7-1.1,1.2-1.5,1.6c-1.1,1.3-1.6,2.5-1.4,3.4
		c0.2,0.9,0.9,2.4,2.3,4.5c1.1,1.6,2,2.9,2.6,4c0.6,1.1,1.1,2.2,1.5,3.3c0.4,1.1,0.6,2.3,0.6,3.6c0.1,1.3,0,2.9-0.1,4.9
		c0,0.7,0,1.4-0.1,2.1c-0.1,0.7-0.1,1.4-0.1,2.1l-15.4,0.9c-1.8,0.1-3.5,0.3-5,0.6c-1.5,0.3-2.7,0.9-3.6,1.7
		c-2.3-4.3-5.3-7.8-9-10.7c-3.7-2.9-7.6-5.3-11.9-7.4c-1-0.5-2.2-0.9-3.6-1.4c-1.4-0.4-2.8-0.8-4.3-1.1c-1.5-0.3-2.9-0.5-4.3-0.6
		c-1.4-0.1-2.7-0.1-3.8,0c-1.2,0.2-2.5,0.7-3.9,1.3c-1.4,0.6-2.4,1.6-3,2.9c-3.3,1-6.6,2.7-9.8,5c-3.2,2.4-6.1,5.3-8.7,8.6
		c-2.6,3.4-4.6,7-6.1,11c-1.5,4-2.3,8-2.3,12c0,9.2,2.3,16.9,6.8,23.1c4.5,6.2,11.4,10.1,20.5,11.5c3.5,0.6,6.4,0.5,8.6-0.4
		c1,0,2,0,3,0.1c1,0.1,2.1,0,3.2-0.1c5.4-0.2,10.5-1.6,15.3-4.2c4.8-2.6,8.8-6,12-10.3c0.7,1,1.6,1.9,2.7,2.7c1,0.9,2.1,1.6,3.2,2.4
		c2.1,1.3,4.2,2.5,6.3,3.5c2.1,1,4.8,1.3,8,1.1c0.6,0,1.3,0,2.1-0.1c0.8-0.1,1.7-0.1,2.7-0.1c0.1,1,0.2,1.9,0.3,2.7
		c0.1,0.9,0.2,1.8,0.5,2.7c0.4,2.2,1,4.2,1.9,6c0.9,1.8,1.9,3.7,2.8,5.5c-3.5,0.2-7.6,0.5-12.2,0.6c-4.6,0.2-9.3,0.4-14.1,0.5
		c-4.8,0.2-9.6,0.3-14.2,0.5c-4.6,0.1-8.7,0.2-12.3,0.2c-3.5,0-6.6-0.2-9.2-0.6c-2.6-0.4-5.1-1.5-7.5-3.2c-1.3-1-2.5-1.5-3.4-1.5
		s-2.1,0.6-3.6,1.8c-0.6,0.5-1.6,1.5-3.1,2.9c-1.5,1.5-2.6,2.7-3.3,3.7c-1.1,1.3-1.7,2.5-1.7,3.5c-0.1,1,0.5,2.1,1.7,3.5
		c2.2,2.6,4.3,4.7,6.3,6.5c2,1.8,4.1,3.2,6.3,4.3c2.2,1.1,4.7,1.9,7.4,2.4c2.7,0.5,6,0.7,9.8,0.7c3.1,0,6.7,0,10.9-0.1
		c4.2-0.1,8.4-0.2,12.6-0.3c4.2-0.1,8.2-0.3,11.8-0.5s6.5-0.4,8.6-0.6c0.1,4,0.2,7.7,0.4,11.1c0.1,3.4,0.3,6.9,0.5,10.5
		c0.1,1.7,0.5,3.6,1.3,5.6c0.7,2,1.6,3.9,2.6,5.8s2,3.5,3,5c1,1.5,2,2.7,2.8,3.6c0.6-1.5,1.5-3.1,2.7-5c1.2-1.9,2.6-3.8,4.2-5.6
		c2.3-3.3,4.1-6.5,5.2-9.5c1.2-3.1,2.2-6.8,3-11.4c0.2-2.8,0.5-5.4,0.9-7.9c0.4-2.4,0.7-5.2,0.9-8.2c0.6-3.2,0.9-5.7,0.7-7.4
		c-0.1-1.8-0.9-3.6-2.2-5.4c-1.1-1.6-2.1-2.8-3-3.7c-0.9-0.9-2-1.5-3.2-1.8c2.6-3.8,4.6-7.7,6.2-11.7c1.6-4,2.4-7.8,2.6-11.4
		c0.1-3.1,0.2-6.6,0.3-10.6c0.1-4,0.1-8.3,0.2-12.7c0.1-4.5,0.1-9.1,0.1-13.8c0-4.8,0-9.5,0-14.3c0-4.4-0.3-8.1-0.9-11.1
		C129.3,44,128,41.3,126,38.9z M58.6,94.8c-2,3.1-4.3,5.1-7.1,6c-2.2,0.7-4.3,1.1-6.2,1.1c-3.3-0.6-6-2.1-8.1-4.5
		C35.1,95,34,91.2,34,85.8c0-1.6,0.3-3.3,0.9-5.2c0.6-1.9,1.4-3.8,2.4-5.6c1-1.8,2.2-3.4,3.6-4.8c1.4-1.3,2.8-2.3,4.3-2.7
		c0.9,1,2.2,1.8,4,2.4c1.5,0.5,2.9,1.2,4.3,2c1.4,0.9,2.7,1.9,3.8,3.1c1.2,1.2,2.1,2.7,2.8,4.3c0.7,1.6,1.1,3.5,1.1,5.4
		C61.4,88.3,60.5,91.7,58.6,94.8z M104.4,90c0,1.5,0,2.9,0,4.2c-2.1,0.1-4,0.2-5.8,0.3c-1.8,0.1-3.3,0.1-4.5,0.1c-1,0-2.3,0.1-4,0.2
		c-1.7,0.1-3.4,0.3-5.1,0.5c0.6-2.4,0.9-4.8,0.9-7c0-1.8-0.1-3.6-0.2-5.2c-0.1-1.6-0.3-3.2-0.5-4.7c2.1,1.7,4.5,3.2,7.1,4.6
		c2.7,1.3,5.4,2.1,8.1,2.2h4.2C104.5,86.9,104.4,88.5,104.4,90z"/>
	<path d="M284.3,136.4c-0.1-4.3-0.1-9.1-0.2-14.3c-0.1-5.2-0.1-10.7-0.2-16.4c-0.1-5.7-0.1-11.5-0.2-17.1
		c-0.1-5.7-0.2-11.2-0.3-16.5c-0.1-5.3-0.2-10.1-0.2-14.4c0-3.4-0.2-6.4-0.6-8.8c-0.4-2.4-1.2-4.7-2.2-6.7c-1-2-2.4-3.9-4.2-5.7
		c-1.8-1.8-4.1-3.8-7.1-6c-1.6-1.1-2.9-1.9-4-2.4c-1.1-0.5-2.2-0.7-3.2-0.5c-1,0.1-2.1,0.6-3.3,1.4c-1.2,0.8-2.5,1.8-4.1,3
		c-3.2,2.6-5.2,4.6-6,6.2c-0.8,1.6-0.1,3.7,2.1,6.2c1.7,2,2.9,4.1,3.7,6.5c0.7,2.4,1.2,6,1.5,10.7c0.1,5,0.2,11.1,0.3,18.1
		c0.1,7.1,0.1,14.6,0.1,22.5c0,7.9-0.1,15.8-0.3,23.6c-0.2,7.9-0.3,15.1-0.5,21.5c-0.2,6-0.2,11.4,0.1,16.2c0.3,4.8,1.3,9.3,3,13.3
		c1.3,3.2,2.5,6.3,3.6,9.3c1,3.1,1.5,6,1.4,9c2.7-2.9,5.3-6.3,7.8-10.1c2.5-3.8,4.7-7.8,6.7-12c2-4.2,3.5-8.6,4.7-13
		c1.2-4.5,1.7-8.8,1.7-13.1C284.4,144.4,284.3,140.8,284.3,136.4z"/>
	<path d="M245.6,132.8c-0.7-1.3-1.6-2.5-2.7-3.8c-1.1-1.2-2.4-2.6-4-4.2c-1-0.9-2.4-2-4.3-3.6c-1.9-1.5-3.9-3.1-6.1-4.7
		c-2.2-1.6-4.4-3.1-6.5-4.5c-2.1-1.4-3.9-2.5-5.4-3.4c2.3-6,4.3-12,6-18c0.6-2.3,1.1-4.4,1.4-6.1c0.3-1.8,0.4-3.4,0.3-4.9
		c-0.1-1.5-0.5-2.9-1.3-4.2c-0.7-1.3-1.8-2.7-3.1-4c-2.1-2.1-4.2-3.8-6.4-5.3c-2.2-1.5-4.3-2.7-6.4-3.7c-1-0.5-1.8-0.8-2.5-1
		c-0.7-0.2-1.3-0.2-1.7-0.2c-0.5,0.1-0.9,0.2-1.4,0.5c-0.4,0.2-1,0.5-1.7,0.7c-1.3,0.6-2.8,1.8-4.4,3.7c-1.6,1.8-2.6,3.3-3.1,4.4
		c-0.5,1.1-0.6,1.9-0.4,2.4c0.2,0.5,1.1,1.6,2.6,3.5c1.3,1.7,2,3.3,2,4.9c0,1.5-0.5,3.7-1.6,6.5c-2.4,6-4.9,11.7-7.3,17
		c-2.4,5.4-5.2,10.4-8.3,15c-3.1,4.6-6.6,9-10.5,13c-3.9,4-8.4,7.7-13.6,11c-1.3,0.9-2.8,1.6-4.4,2.1c-1.6,0.5-3.2,0.9-4.9,1.2
		c-1.7,0.2-2.2,0.7-1.6,1.3c0.7,0.6,1.7,1.2,3,1.6c4.3,1.3,8.2,2.5,11.8,3.5c3.6,1,6.7,1.5,9.4,1.6c2.8,0.1,5.3,0.2,7.6,0.1
		c2.3-0.1,4.4-0.3,6.4-0.8c2-0.5,4-1.3,6-2.5c2-1.2,4.2-2.8,6.5-5c2-1.7,3.9-4,5.8-6.9c1.9-2.9,3.8-6.1,5.8-9.6
		c2.1,2.7,4.2,5.4,6.4,8.1c2.2,2.7,4.2,4.9,5.9,6.6c2.4,2.3,4.6,4.2,6.3,5.7c1.8,1.5,4.1,2.6,6.9,3.3c4.8,1.3,8.6,0.9,11.5-1.5
		c2.9-2.3,4.3-5.9,4.2-10.8c0-2-0.2-3.6-0.5-5C246.8,135.4,246.3,134.1,245.6,132.8z"/>
</g>
</svg>
