<?xml version="1.0" encoding="utf-8"?>
<!-- Generator: Adobe Illustrator 24.3.0, SVG Export Plug-In . SVG Version: 6.00 Build 0)  -->
<svg version="1.1" id="Layer_1" xmlns="http://www.w3.org/2000/svg" xmlns:xlink="http://www.w3.org/1999/xlink" x="0px" y="0px"
	 viewBox="0 0 864 366.6" style="enable-background:new 0 0 864 366.6;" xml:space="preserve">
<g fill="white">
	<path d="M374.3,59.3c-2.4-3.1-4.7-6-7.3-8.4c-2.6-2.4-6-5.2-10.4-8.4c-3.1-2.4-5.5-3.4-7.1-3.4c-1.6,0-4.2,1-7.8,3.1
		c-0.5,0.5-1.6,1-2.6,2.1c-1,1-2.4,2.1-3.7,3.1c-1.3,1-2.4,2.1-3.4,3.4c-1,1-1.8,2.1-2.6,2.6c-1.8,2.4-2.6,4.2-2.4,6
		c0.3,1.6,1.6,4.2,3.9,7.8c1.8,2.9,3.4,5.2,4.4,7.1c1,1.8,1.8,3.9,2.6,5.7c0.5,1.8,1,3.9,1,6.3c0,2.4,0,5-0.3,8.4
		c0,1.3,0,2.6-0.3,3.7c0,1-0.3,2.4-0.3,3.7l-26.9,1.6c-3.1,0.3-6,0.5-8.9,1c-2.6,0.5-4.7,1.6-6.3,3.1c-3.9-7.3-9.1-13.6-15.7-18.5
		c-6.3-5-13.3-9.4-20.6-12.8c-1.8-0.8-3.7-1.6-6.3-2.4c-2.4-0.8-5-1.3-7.6-1.8c-2.6-0.5-5-0.8-7.6-1c-2.4-0.3-4.7-0.3-6.5,0
		c-2.1,0.5-4.4,1-6.8,2.4c-2.4,1-4.2,2.9-5.2,5.2c-5.7,1.8-11.5,4.7-17,8.9c-5.7,4.2-10.7,9.1-15.1,14.9
		c-4.4,5.7-8.1,12.3-10.7,19.1c-2.6,6.8-3.9,13.8-3.9,20.9c0,15.9,3.9,29.2,11.8,40.2c7.8,11,19.8,17.5,35.8,20.1
		c6.3,1,11.2,0.8,14.9-0.5c1.8,0,3.4,0,5.2,0.3c1.8,0,3.7,0,5.5-0.3c9.4-0.5,18.3-2.9,26.6-7.3s15.4-10.4,20.9-17.8
		c1.3,1.8,2.9,3.4,4.7,4.7c1.8,1.6,3.7,2.9,5.5,4.2c3.7,2.4,7.3,4.4,11,6c3.7,1.8,8.4,2.4,13.8,1.8c1,0,2.4,0,3.7-0.3
		c1.3,0,2.9-0.3,4.7-0.3c0.3,1.8,0.3,3.4,0.5,4.7c0,1.6,0.3,3.1,0.8,4.7c0.5,3.9,1.8,7.3,3.4,10.4c1.6,3.1,3.1,6.3,5,9.7
		c-6.3,0.5-13.3,0.8-21.2,1c-8.1,0.3-16.2,0.5-24.5,1c-8.4,0.3-16.7,0.5-24.8,0.8c-8.1,0.3-15.1,0.3-21.4,0.3
		c-6.3,0-11.5-0.3-15.9-1c-4.4-0.8-8.9-2.6-13.1-5.5c-2.4-1.8-4.2-2.6-6-2.6c-1.6,0-3.7,1-6.3,3.1c-1,0.8-2.9,2.6-5.5,5.2
		s-4.4,4.7-5.7,6.3c-1.8,2.4-2.9,4.4-3.1,6c0,1.8,0.8,3.7,3.1,6c3.9,4.4,7.6,8.4,11,11.2c3.4,3.1,7.1,5.5,11,7.6
		c3.9,1.8,8.1,3.4,12.8,4.2c4.7,0.8,10.4,1.3,17,1.3c5.2,0,11.8,0,19.1-0.3c7.3,0,14.6-0.3,21.9-0.5c7.3-0.3,14.1-0.5,20.6-0.8
		c6.3-0.3,11.5-0.8,14.9-1c0.3,7.1,0.5,13.3,0.5,19.3c0.3,5.7,0.5,12,1,18.3c0.3,2.9,1,6.3,2.4,9.7c1.3,3.4,2.9,6.8,4.4,9.9
		c1.8,3.1,3.4,6,5.2,8.9c1.8,2.6,3.4,4.7,5,6.3c1-2.6,2.6-5.5,4.7-8.9c2.1-3.4,4.4-6.5,7.3-9.7c3.9-5.7,7.1-11.2,9.1-16.5
		c2.1-5.2,3.7-12,5.2-19.8c0.5-5,1-9.4,1.6-13.8c0.5-4.2,1-9.1,1.6-14.4c1-5.5,1.6-9.9,1.3-12.8c-0.3-3.1-1.6-6.3-3.9-9.4
		c-1.8-2.9-3.7-5-5.2-6.3c-1.6-1.6-3.4-2.6-5.5-3.1c4.4-6.5,8.1-13.3,11-20.4c2.9-7.1,4.2-13.6,4.4-19.8c0.3-5.2,0.3-11.5,0.5-18.5
		c0-7.1,0.3-14.4,0.3-22.2s0.3-15.7,0.3-24s0-16.5,0-24.8c0-7.6-0.5-14.1-1.6-19.3C380.1,68.5,377.7,63.8,374.3,59.3z M257,156.7
		c-3.4,5.2-7.6,8.9-12.5,10.4c-3.9,1.3-7.6,1.8-11,1.8c-5.7-1-10.4-3.7-14.1-7.8c-3.7-4.2-5.5-11-5.5-20.4c0-2.9,0.5-5.7,1.6-9.1
		c1-3.4,2.4-6.5,4.2-9.7c1.8-3.1,3.7-6,6.3-8.4c2.4-2.4,5-3.9,7.6-4.7c1.6,1.8,3.9,3.1,7.1,4.2c2.6,0.8,5,2.1,7.6,3.4
		c2.4,1.6,4.7,3.4,6.8,5.5c2.1,2.1,3.7,4.7,5,7.6c1.3,2.9,1.8,6,1.8,9.4C262,145.5,260.4,151.5,257,156.7z M336.7,148.4
		c0,2.6,0,5,0,7.3c-3.7,0.3-7.1,0.3-9.9,0.5c-3.1,0-5.7,0.3-7.8,0.3c-1.8,0-3.9,0-7.1,0.3c-2.9,0.3-6,0.5-8.9,1
		c1-4.2,1.6-8.4,1.6-12c0-3.1,0-6.3-0.3-9.1s-0.5-5.5-1-8.1c3.7,2.9,7.8,5.7,12.5,8.1c4.7,2.4,9.4,3.7,14.1,3.9h7.3
		C337,143.2,336.7,145.8,336.7,148.4z"/>
	<path d="M649.6,204.3c0-9.1-0.3-18.5-0.3-28.5c0-9.9-0.3-19.8-0.3-29.8s-0.3-19.3-0.5-28.7c-0.3-9.1-0.3-17.5-0.3-25.1
		c0-6-0.3-11-1-15.4c-0.8-4.2-2.1-8.1-3.9-11.8c-1.8-3.4-4.2-6.8-7.3-9.9c-3.1-3.1-7.1-6.5-12.3-10.4c-2.9-1.8-5.2-3.4-7.1-4.2
		c-1.8-0.8-3.7-1-5.5-1c-1.8,0.3-3.7,1-5.7,2.4c-2.1,1.3-4.4,3.1-7.1,5.2c-5.5,4.4-8.9,8.1-10.4,11c-1.3,2.9-0.3,6.3,3.7,11
		c2.9,3.4,5.2,7.1,6.3,11.2c1.3,4.2,2.1,10.4,2.6,18.5c0.3,8.6,0.3,19.3,0.5,31.6c0,12.3,0.3,25.3,0.3,39.2s-0.3,27.4-0.5,41.3
		c-0.3,13.8-0.5,26.1-0.8,37.3c-0.5,10.4-0.3,19.8,0.3,28.2c0.5,8.4,2.4,16.2,5.2,23.2c2.4,5.5,4.4,11,6.3,16.2
		c1.8,5.2,2.6,10.4,2.4,15.7c4.7-5.2,9.1-11,13.6-17.5c4.4-6.5,8.4-13.6,11.8-20.9c3.4-7.3,6-14.9,8.1-22.7
		c2.1-7.8,3.1-15.4,3.1-22.7c0-5,0-11.2-0.3-18.5C649.6,221.8,649.6,213.4,649.6,204.3z"/>
	<path d="M582.4,222.8c-1-2.4-2.6-4.4-4.7-6.5c-1.8-2.1-4.2-4.4-7.1-7.3c-1.8-1.6-4.2-3.7-7.6-6.3c-3.4-2.6-6.8-5.5-10.7-8.1
		c-3.9-2.9-7.6-5.5-11.2-7.8c-3.7-2.4-6.8-4.4-9.4-6c3.9-10.4,7.6-20.9,10.4-31.3c1-3.9,1.8-7.6,2.4-10.7c0.5-3.1,0.8-6,0.5-8.4
		c-0.3-2.6-1-5-2.4-7.3c-1.3-2.4-3.1-4.7-5.5-7.1c-3.7-3.7-7.3-6.8-11.2-9.1c-3.9-2.6-7.6-4.7-11.2-6.3c-1.8-0.8-3.1-1.3-4.2-1.8
		c-1-0.3-2.1-0.5-3.1-0.3c-0.8,0-1.6,0.3-2.4,0.8c-0.8,0.5-1.8,0.8-3.1,1.3c-2.4,1-5,3.1-7.6,6.3c-2.9,3.1-4.7,5.7-5.5,7.6
		c-0.8,1.8-1,3.4-0.5,4.2c0.5,0.8,1.8,2.9,4.4,6c2.4,2.9,3.4,5.7,3.4,8.4s-1,6.5-2.9,11.2c-4.2,10.4-8.6,20.4-12.8,29.8
		c-4.2,9.4-9.1,18-14.6,26.1c-5.5,8.1-11.5,15.7-18.3,22.7c-6.8,7.1-14.6,13.3-23.5,19.1c-2.4,1.6-5,2.6-7.6,3.7
		c-2.9,1-5.7,1.6-8.6,2.1c-2.9,0.5-3.9,1-2.6,2.4c1,1,2.9,2.1,5.2,2.9c7.3,2.4,14.4,4.4,20.6,6c6.3,1.8,11.8,2.6,16.5,2.9
		c5,0.3,9.4,0.3,13.3,0.3c3.9,0,7.6-0.5,11.2-1.3c3.4-0.8,7.1-2.4,10.4-4.2c3.4-2.1,7.3-5,11.2-8.9c3.4-2.9,6.8-7.1,9.9-12
		c3.4-5,6.5-10.4,9.9-16.7c3.7,4.7,7.3,9.4,11.2,14.1c3.9,4.7,7.3,8.6,10.2,11.5c4.2,3.9,7.8,7.3,11,9.9c3.1,2.6,7.1,4.4,12,5.7
		c8.4,2.4,14.9,1.6,20.1-2.6c5.2-3.9,7.6-10.2,7.3-18.8c0-3.4-0.3-6.3-1-8.9C584.5,227.5,583.8,225.2,582.4,222.8z"/>
	<path d="M729.2,274c-5.5-4.7-11.8-7.1-18.8-7.1c-7.3,0-13.1,1.8-17.2,5.2c-4.2,3.4-6.3,8.6-6.3,15.9c0,8.6,1.8,15.7,5.7,20.6
		c3.9,5.2,9.1,7.6,16.2,7.6c3.9,0,7.8-0.8,11.2-2.4c3.4-1.6,6.5-3.7,9.1-6s4.4-5,6-8.1c1.6-2.9,2.4-5.7,2.4-8.4
		C737.6,284.4,735,278.7,729.2,274z"/>
</g>
</svg>
